<svg width="64" height="64" viewBox="0 0 64 64" fill="none" xmlns="http://www.w3.org/2000/svg">
  <rect width="64" height="64" rx="14" fill="#0B1F3A"/>
  <rect x="3" y="3" width="58" height="58" rx="12" stroke="#C8A96A" stroke-opacity="0.55" stroke-width="2"/>
  <path d="M10 45.2V18.8H24.6C29.8 18.8 33 21.7 33 26.1C33 28.8 31.8 30.8 29.5 31.9C32.6 33 34.2 35.2 34.2 38.2C34.2 42.6 30.7 45.2 25.2 45.2H10ZM16.7 29.4H23.4C25.1 29.4 26.1 28.4 26.1 26.8C26.1 25.2 25.1 24.3 23.3 24.3H16.7V29.4ZM16.7 39.7H24.3C26.2 39.7 27.3 38.7 27.3 37C27.3 35.3 26.1 34.3 24.2 34.3H16.7V39.7Z" fill="#C8A96A"/>
  <path d="M37 18.8H43.8V39.2H55V45.2H37V18.8Z" fill="#F4DEAA"/>
</svg>
